<?xml version="1.0" encoding="UTF-8" standalone="no"?>
<!-- Created with Inkscape (http://www.inkscape.org/) -->

<svg
   xmlns:dc="http://purl.org/dc/elements/1.1/"
   xmlns:cc="http://creativecommons.org/ns#"
   xmlns:rdf="http://www.w3.org/1999/02/22-rdf-syntax-ns#"
   xmlns:svg="http://www.w3.org/2000/svg"
   xmlns="http://www.w3.org/2000/svg"
   xmlns:sodipodi="http://sodipodi.sourceforge.net/DTD/sodipodi-0.dtd"
   xmlns:inkscape="http://www.inkscape.org/namespaces/inkscape"
   width="450"
   height="500"
   id="svg2"
   version="1.1"
   inkscape:version="0.48.2 r9819"
   sodipodi:docname="New document 1">
  <defs
     id="defs4" />
  <sodipodi:namedview
     id="base"
     pagecolor="#ffffff"
     bordercolor="#666666"
     borderopacity="1.0"
     inkscape:pageopacity="0.0"
     inkscape:pageshadow="2"
     inkscape:zoom="1"
     inkscape:cx="396.90716"
     inkscape:cy="360.22192"
     inkscape:document-units="px"
     inkscape:current-layer="layer1"
     showgrid="false"
     fit-margin-top="0"
     fit-margin-left="0"
     fit-margin-right="0"
     fit-margin-bottom="0"
     inkscape:window-width="1920"
     inkscape:window-height="1028"
     inkscape:window-x="-8"
     inkscape:window-y="-8"
     inkscape:window-maximized="1" />
  <metadata
     id="metadata7">
    <rdf:RDF>
      <cc:Work
         rdf:about="">
        <dc:format>image/svg+xml</dc:format>
        <dc:type
           rdf:resource="http://purl.org/dc/dcmitype/StillImage" />
        <dc:title></dc:title>
      </cc:Work>
    </rdf:RDF>
  </metadata>
  <g
     inkscape:label="Layer 1"
     inkscape:groupmode="layer"
     id="layer1"
     transform="translate(-118.78571,-311.4336)">
    <g
       id="g3792"
       transform="translate(8,-7)">
      <path
         sodipodi:nodetypes="ccccccccc"
         inkscape:connector-curvature="0"
         id="path2996"
         d="m 119.28571,675.21933 221.42858,-345.71429 58.75,26.07143 12.67857,-25 91.24999,38.03572 -11.78571,24.64285 60.53572,25.53571 -136.42857,392.14286 z"
         style="fill:none;stroke:#000000;stroke-width:1px;stroke-linecap:butt;stroke-linejoin:miter;stroke-opacity:1" />
      <path
         inkscape:connector-curvature="0"
         id="path2998"
         d="M 158.57143,668.07647 355,355.93361 l 165,70 -123.57143,350 z"
         style="fill:none;stroke:#000000;stroke-width:1px;stroke-linecap:butt;stroke-linejoin:miter;stroke-opacity:1" />
      <path
         inkscape:connector-curvature="0"
         id="path3000"
         d="m 184.28571,662.36218 17.14286,-29.28571 195.71429,86.42857 -11.42857,33.57143 z"
         style="fill:none;stroke:#000000;stroke-width:1px;stroke-linecap:butt;stroke-linejoin:miter;stroke-opacity:1" />
      <path
         inkscape:connector-curvature="0"
         id="path3008"
         d="m 177.31283,614.74582 c -0.97847,-0.20085 -1.75,-1.26003 -1.75,-2.40248 0,-1.63356 0.4952,-1.94859 2.46974,-1.57113 1.35836,0.25967 2.2318,0.0871 1.94098,-0.38342 -0.29081,-0.47055 0.49793,-0.85554 1.75277,-0.85554 2.25178,0 2.2552,-0.0184 0.2622,-1.41439 -1.62589,-1.13882 -2.73538,-1.19027 -5.69462,-0.26404 -2.02142,0.63269 -3.86065,1.83167 -4.08718,2.66439 -0.24314,0.89374 -0.45941,0.61889 -0.52789,-0.67086 -0.20381,-3.83891 1.61272,-6.93391 5.04546,-8.59644 1.8362,-0.8893 3.23143,-1.9773 3.1005,-2.41778 -0.49847,-1.67708 0.93473,-4.30088 2.34927,-4.30088 0.82302,0 1.3464,-0.72858 1.18261,-1.64626 -0.16161,-0.90544 0.24946,-1.83654 0.91349,-2.06911 0.87026,-0.3048 1.11448,1.06214 0.87479,4.89626 -0.18289,2.92551 -0.4812,5.76911 -0.66292,6.31911 -0.18172,0.55 0.46413,2.49237 1.43522,4.31639 2.29551,4.31172 1.86535,8.68361 -0.85442,8.68361 -1.44288,0 -1.96664,-0.62676 -1.88026,-2.25 0.0659,-1.2375 -0.0788,-2.25 -0.32143,-2.25 -0.64825,0 -2.91192,2.37469 -3.38759,3.55375 -0.2259,0.55992 -1.19822,0.85639 -2.16072,0.65882 z"
         style="opacity:0.82743363;fill:#fefefe;fill-opacity:1" />
      <path
         inkscape:connector-curvature="0"
         id="path3014"
         d="m 285.26615,707.21732 c -54.96562,-24.75517 -99.97955,-45.04867 -100.03094,-45.09667 -0.0795,-0.0742 16.10327,-27.88394 16.39792,-28.17953 0.0773,-0.0775 194.4905,85.64198 194.74216,85.86452 0.0802,0.0709 -10.94439,32.35154 -11.06104,32.38724 -0.0608,0.0186 -45.08247,-20.22039 -100.0481,-44.97556 z"
         style="opacity:0.82743363;fill:#fe572c;fill-opacity:0.82745098" />
      <path
         id="path3016"
         d="m 341.21875,330.96875 c -0.12247,-0.0224 -0.19126,0.003 -0.21875,0.0312 -1.12172,1.13467 -220.4297,343.57375 -220.1875,343.8125 0.1088,0.10725 66.51875,30.38313 147.09375,67.28125 108.65354,49.75627 146.56484,67.64959 147.1875,66.71875 0.46175,-0.69029 31.25831,-89.20206 68.28125,-195.625 52.97696,-152.28299 64.80511,-184.18148 66.5,-191.78125 0.41909,-1.87917 0.0415,-2.11066 -0.28125,-2.5 -0.85265,-1.02862 -15.3375,-6.54781 -30.1875,-12.75 -14.85,-6.20218 -28.24361,-11.76727 -28.75,-12.21875 -0.54101,-0.48234 2.22529,-5.64747 5.53125,-12.71875 l 5.625,-12.03125 -3.21875,-1.34375 c -1.76308,-0.73631 -21.69456,-9.06413 -44.28125,-18.5 -22.5867,-9.43587 -41.27465,-17.15625 -41.53125,-17.15625 -0.2566,0 -3.11159,5.4 -6.375,12 -3.26341,6.6 -6.11448,12.53125 -6.75,12.53125 -0.63553,0 -14.23331,-6.1864 -29.78125,-13.09375 -14.57618,-6.47563 -26.81927,-12.31949 -28.65625,-12.65625 z m 13.53125,23.5 c 1.27457,0 165.36867,70.00647 166.4375,71 0.47509,0.44163 -27.83894,79.21509 -61.78125,175.375 -33.94231,96.1599 -62.0082,175.91848 -62.375,176.3125 -0.3668,0.39401 -24.29026,-10.74972 -53.15625,-23.84375 -28.86598,-13.09403 -82.50625,-37.44277 -119.21875,-54.09375 -36.7125,-16.65099 -67.375,-30.26472 -67.375,-30.78125 0,-1.5682 196.4802,-313.96875 197.46875,-313.96875 z"
         style="opacity:0.82743363;fill:#000000;fill-opacity:0.82745098"
         inkscape:connector-curvature="0" />
    </g>
  </g>
</svg>
