<?xml version="1.0" encoding="UTF-8" standalone="no"?>

<svg
	xmlns:dc="http://purl.org/dc/elements/1.1/"
	xmlns:cc="http://creativecommons.org/ns#"
	xmlns:rdf="http://www.w3.org/1999/02/22-rdf-syntax-ns#"
	xmlns:svg="http://www.w3.org/2000/svg"
	xmlns="http://www.w3.org/2000/svg"
	width="500"
	height="500"
	id="svg2"
	version="1.1">
	<g
		id="border"
		transform="translate(-118,-311)">
		<path
			opacity = "0.7"
			fill = "#000"
			d="m 341.21875,330.96875 c -0.12247,-0.0224 -0.19126,0.003 -0.21875,0.0312 -1.12172,1.13467 -220.4297,343.57375 -220.1875,343.8125 0.1088,0.10725 66.51875,30.38313 147.09375,67.28125 108.65354,49.75627 146.56484,67.64959 147.1875,66.71875 0.46175,-0.69029 31.25831,-89.20206 68.28125,-195.625 52.97696,-152.28299 64.80511,-184.18148 66.5,-191.78125 0.41909,-1.87917 0.0415,-2.11066 -0.28125,-2.5 -0.85265,-1.02862 -15.3375,-6.54781 -30.1875,-12.75 -14.85,-6.20218 -28.24361,-11.76727 -28.75,-12.21875 -0.54101,-0.48234 2.22529,-5.64747 5.53125,-12.71875 l 5.625,-12.03125 -3.21875,-1.34375 c -1.76308,-0.73631 -21.69456,-9.06413 -44.28125,-18.5 -22.5867,-9.43587 -41.27465,-17.15625 -41.53125,-17.15625 -0.2566,0 -3.11159,5.4 -6.375,12 -3.26341,6.6 -6.11448,12.53125 -6.75,12.53125 -0.63553,0 -14.23331,-6.1864 -29.78125,-13.09375 -14.57618,-6.47563 -26.81927,-12.31949 -28.65625,-12.65625 z m 13.53125,23.5 c 1.27457,0 165.36867,70.00647 166.4375,71 0.47509,0.44163 -27.83894,79.21509 -61.78125,175.375 -33.94231,96.1599 -62.0082,175.91848 -62.375,176.3125 -0.3668,0.39401 -24.29026,-10.74972 -53.15625,-23.84375 -28.86598,-13.09403 -82.50625,-37.44277 -119.21875,-54.09375 -36.7125,-16.65099 -67.375,-30.26472 -67.375,-30.78125 0,-1.5682 196.4802,-313.96875 197.46875,-313.96875 z"/>
	</g>
	<g
		id="barbottom"
		transform="translate(-118,-311)">
		<path
			opacity = "0.8"
			fill = "red"
			d="m 285.26615,707.21732 c -54.96562,-24.75517 -99.97955,-45.04867 -100.03094,-45.09667 -0.0795,-0.0742 16.10327,-27.88394 16.39792,-28.17953 0.0773,-0.0775 194.4905,85.64198 194.74216,85.86452 0.0802,0.0709 -10.94439,32.35154 -11.06104,32.38724 -0.0608,0.0186 -45.08247,-20.22039 -100.0481,-44.97556 z"/>
	</g>
</svg>