<svg xmlns:svg="http://www.w3.org/2000/svg" xmlns="http://www.w3.org/2000/svg" width="500" height="500" version="1.1"><g transform="translate(-88,-313)"><path d="m338 333c-215 340 0 0-215 340 290 135 0 0 290 135 135-390-1.6-0.9 135-390-60-25 0 0-60-25 10-30 0 0 10-30-80-30 0 0-80-30-15 25 0 0-15 25-65-25 0 0-65-25zm10 25c0 0 0 0 175 70-125 350 0 0-125 350-245-110 0 0-245-110 195-310 0 0 195-310z" style="fill:#000;opacity:0.7"/></g><g transform="translate(-88,-313)"><path d="m178 663c0 0 0 0 20-30l200 85c0 0 0 0-15 35-205-90 0 0-205-90z" style="fill:#f00;opacity:0.8"/></g></svg>